<?xml version="1.0" encoding="UTF-8"?>
<svg id="lb-logo" xmlns="http://www.w3.org/2000/svg" version="1.1" viewBox="0 0 32 32">
  <!-- Generator: Adobe Illustrator 29.6.1, SVG Export Plug-In . SVG Version: 2.1.1 Build 9)  -->
  <defs>
    <style>
      .st0 {
        fill-rule: evenodd;
      }
    </style>
  </defs>
  <path class="st0" d="M30.7,9.8c-1.5-3.7-4.4-6.6-8-8.3C19.2-.2,15.1-.5,11.3.7c-3.8,1.2-7,3.7-9,7.1C.2,11.2-.5,15.3.3,19.2c.8,3.9,3,7.3,6.2,9.7,3.2,2.4,7.1,3.4,11.1,3,3.9-.4,7.6-2.2,10.3-5.2,2.7-2.9,4.1-6.8,4.1-10.7,0-2.1-.4-4.2-1.3-6.2h0ZM2.4,18.3v-.2c-.1-.6-.2-1.2-.2-1.8v-.3s.3,0,.3,0c4.2.6,8.4,1.8,12.2,3.6h.2v2.6l-.4-.2c-3.8-1.9-7.8-3.1-11.9-3.7h-.2ZM4.2,22.9h-.1s0-.1,0-.1c-.4-.6-.7-1.3-.9-2l-.2-.4h.5c4,.8,7.8,2.1,11.4,3.9h.1v2.7l-.4-.2c-3.2-1.8-6.7-3.1-10.3-3.9h0ZM14.6,29.7c-2.9-.3-5.7-1.5-7.9-3.5l-.9-.8,1.1.4c2.7.8,5.3,2,7.8,3.5l1,.6h-1.2ZM16.2,17.9h0s-.2,0-.2,0h0s0,0,0,0c-4.2-2-8.6-3.3-13.2-3.9h-.3s0-.3,0-.3c.6-3.2,2.2-6.1,4.7-8.2,2.5-2.1,5.6-3.2,8.9-3.2s6.4,1.1,8.9,3.2c2.5,2.1,4.2,5,4.7,8.2v.3s-.2,0-.2,0c-4.6.6-9,1.9-13.2,3.9h0ZM25.3,26.2c-2.2,2-4.9,3.2-7.9,3.5h-1.2c0,.1,1-.5,1-.5,2.4-1.5,5.1-2.7,7.8-3.5l1.1-.4-.9.8ZM28.9,20.8c-.3.7-.6,1.4-.9,2h0c0,.1-.1.1-.1.1-3.6.8-7.1,2.1-10.3,3.9l-.4.2v-2.7h.1c3.6-2,7.4-3.3,11.4-3.9h.5c0,0-.2.4-.2.4ZM29.8,16.2c0,.6,0,1.2-.2,1.8v.2s-.2,0-.2,0c-4.1.6-8.2,1.8-11.9,3.7l-.4.2v-2.6h.2c3.9-1.9,8-3.1,12.2-3.6h.3s0,.3,0,.3Z"/>
</svg>