<?xml version="1.0" encoding="UTF-8"?>
<svg id="Layer_1" xmlns="http://www.w3.org/2000/svg" version="1.1" xmlns:xlink="http://www.w3.org/1999/xlink" viewBox="0 0 93.6 98">
  <!-- Generator: Adobe Illustrator 29.6.1, SVG Export Plug-In . SVG Version: 2.1.1 Build 9)  -->
  <defs>
    <style>
      .st0 {
        fill: #fff;
      }

      .st0, .st1, .st2 {
        fill-rule: evenodd;
      }

      .st1 {
        fill: url(#linear-gradient);
      }

      .st2 {
        fill: #6c60c9;
      }
    </style>
    <linearGradient id="linear-gradient" x1="46.9" y1="99.4" x2="46.9" y2="-27.9" gradientTransform="translate(0 100) scale(1 -1)" gradientUnits="userSpaceOnUse">
      <stop offset="0" stop-color="#617be0"/>
      <stop offset="1" stop-color="#734cb9"/>
    </linearGradient>
  </defs>
  <g id="lapa-logo">
    <g id="logo-1.0">
      <path id="face" class="st1" d="M90.8,18.6c-1.9,1.3-3.1,2.1-5,2.5.2-2.5.9-5.6,2.5-9.2l1.7-3.5-3.3,2.1c-1,.7-3.2,1.5-5.3,2.4-1.1.4-2.1.9-3.1,1.3C70.9,5.2,59.4.2,44.9.2S10.8,10.2,4.9,26.2c-.6.2-.9.3-1,.3-.3.1-.6.3-.7.7-5.4,11-2.1,17.6-1.9,17.9.2.4.5.6.9.6,1.1,29.4,19.1,52,42,52s41.8-20.5,43.3-50.4c0,0,0,0,0,0,.2,0,.4,0,.6-.1.4-.2.6-.5.7-1,.7-5.1.2-9-.6-11.9,2.3-3.6,3.2-8.6,3.8-11.9.2-1.1.4-2.1.5-2.6l1-3.2-2.7,1.9Z"/>
      <path id="mask" class="st0" d="M79.9,58.6c-6.1,23.6-17.3,10-33.7,10s-30.6,15.7-36-10c-3.8-18.2,18.4-14.8,34.9-14.8s39.4-2.7,34.9,14.8Z"/>
      <path id="eye" class="st2" d="M29.9,60c0,2.4-1.9.3-4.3.3s-4.3,2.1-4.3-.3,1.9-4.3,4.3-4.3,4.3,1.9,4.3,4.3Z"/>
      <path id="eye_2" class="st2" d="M68.5,60c0,2.4-1.9.3-4.3.3s-4.3,2.1-4.3-.3,1.9-4.3,4.3-4.3,4.3,1.9,4.3,4.3Z"/>
      <path id="Path" class="st0" d="M75.2,17c2.3-1.7,9.8-4.1,12.2-5.6-1.8,3.8-2.5,7.2-2.7,9.9,0,0,0,0-.1,0-.3,0-.7.1-1,.2h0c-.1,0-.3.1-.4.1,0,0,0,0,0,0-2.6.6-5.1,1.6-7.3,3-1.7-.6-3.4-1-5.1-1.4.6-2.3,2.2-4.5,4.4-6.2Z"/>
      <path id="Path_2" class="st0" d="M87.8,32.9c-.8-2.3-1.8-3.7-1.9-3.9,0,0,0,0,0,0,0,0,0,0,0,0,0,0,0,0,0,0,0,0,0,0,0,0-.1-.1-.2-.2-.4-.3-2.6-1.3-5.3-2.4-8.2-3.4,2.3-1.4,5-2.3,7.4-2.6,3-.4,4.3-1.2,6.8-2.9-.6,2-1.1,8.7-3.7,13.4Z"/>
      <path id="top" class="st0" d="M87.6,46.1s-38-21.1-85.1-1.6c0,0-3.3-6.1,1.9-16.7,0,0,45.8-15.4,80.5,1.9,0,0,4.3,5.5,2.7,16.4Z"/>
    </g>
  </g>
</svg>