<svg width="210" height="212" viewBox="0 0 210 212" fill="none" xmlns="http://www.w3.org/2000/svg">
<path fill-rule="evenodd" clip-rule="evenodd" d="M58.8483 1.82881C59.7583 2.83481 60.5033 4.11482 60.5033 4.67382C60.5033 6.83682 56.7673 8.78882 51.3913 9.43482C40.8833 10.6978 29.6623 17.5478 23.5493 26.4328C20.2583 31.2158 17.5033 39.7278 17.5033 45.1098C17.5033 51.2318 12.7353 54.1238 9.15828 50.1708C7.22428 48.0338 7.06827 44.1668 8.61827 36.7988C11.4103 23.5218 20.4143 12.0808 33.0673 5.73181C44.2053 0.142814 55.7423 -1.60419 58.8483 1.82881ZM63.4413 30.8838C64.9743 33.7478 63.2613 36.8098 59.7243 37.5308C55.2953 38.4348 52.1333 40.3858 50.8213 43.0248C50.1443 44.3858 49.3403 46.7248 49.0343 48.2208C48.2313 52.1598 45.0523 53.5898 41.8143 51.4678C39.4953 49.9478 39.3183 49.3678 39.8943 45.1648C41.0473 36.7538 48.3103 29.9288 56.8643 29.2198C61.6373 28.8238 62.4483 29.0288 63.4413 30.8838ZM134.677 42.7118C137.49 44.4578 139.503 47.8698 139.503 50.8948C139.503 52.6598 130.776 65.4528 104.983 101.5C91.8433 119.863 89.6673 124.5 94.1893 124.5C95.9023 124.5 100.084 119.298 113.484 100.5C122.893 87.2998 131.81 75.2878 133.298 73.8068C139.563 67.5718 150.503 71.2368 150.503 79.5718C150.503 82.7528 147.524 87.4048 128.003 114.709C115.628 132.018 105.503 147.031 105.503 148.071C105.503 150.129 110.066 151.901 111.439 150.377C111.874 149.895 117.245 142.442 123.375 133.815C135.425 116.859 138.211 114 142.688 114C149.438 114 154.922 120.237 152.913 125.631C151.309 129.938 106.245 192.312 100.989 197.5C85.4453 212.843 61.7113 216.201 41.3763 205.936C19.9523 195.121 8.55027 185.903 3.23027 175.097C0.0382705 168.613 0.0032887 168.386 0.0302887 154.021C0.0532887 141.452 0.546276 137.014 3.69228 121C5.69128 110.825 7.88927 96.5298 8.57527 89.2328C9.77327 76.5008 9.90728 75.9918 11.9133 76.5948C19.1683 78.7738 25.1103 83.4288 28.2013 89.3558C30.6143 93.9818 31.0713 106.235 29.1163 113.866C27.4643 120.315 27.6293 122 29.9123 122C30.6223 122 33.1103 123.381 35.4403 125.069C41.3463 129.347 43.9493 135.456 43.1453 143.149C42.6303 148.077 42.8083 149.093 44.3253 149.905C50.8243 153.383 52.0683 135.985 45.9773 126.782C44.6073 124.711 41.6853 121.825 39.4833 120.368L35.4803 117.719L37.8003 114.609C39.0763 112.899 50.6683 96.6978 63.5613 78.6068C89.3533 42.4158 90.0943 41.6618 97.6693 43.9318C102.194 45.2868 104.503 48.2768 104.503 52.7828C104.503 55.4948 101.469 60.3698 88.3033 78.8098C67.2263 108.331 67.5213 107.882 68.1643 109.56C68.4683 110.352 69.7213 111 70.9483 111C72.7373 111 77.9873 104.268 97.4053 77.0758C116.905 49.7678 122.232 42.9408 124.716 42.0758C128.954 40.5978 131.535 40.7628 134.677 42.7118ZM208.631 149.659C209.599 150.83 209.994 154.291 209.972 161.409C209.944 170.796 209.705 171.988 206.56 178.5C204.392 182.988 201.163 187.474 197.564 191C185.954 202.373 167.145 208.75 165.014 202.035C164.051 199.002 166.101 196.298 169.906 195.584C176.25 194.394 187.209 188.139 191.598 183.202C198.18 175.801 199.889 171.108 200.207 159.566C200.39 152.922 200.898 149.367 201.742 148.831C203.84 147.499 207.176 147.9 208.631 149.659ZM175.512 152.332C177.721 153.445 178.001 154.216 177.985 159.143C177.971 163.326 177.382 165.553 175.601 168.153C169.508 177.045 156.503 180.058 156.503 172.578C156.503 169.952 158.271 168 160.647 168C164.201 168 167.847 163.558 168.442 158.506C169.137 152.593 171.661 150.389 175.512 152.332Z" fill="black"/>
</svg>
