<svg className={styles.svg_custom} xmlns="http://www.w3.org/2000/svg" version="1.1" viewBox="0 0 800 800" fill='currentColor'>
  <path d="M707.6,130.2c-3.6-13.2-12.8-25.5-24.1-32.1-9.1-5.4-19-8.2-29.5-8.2s-1.9,0-2.8,0c-9.7.5-18.5,3.2-24.7,5.6h-.2l-1.8.7c-5.8,2.3-28.8,11.9-63.6,26.5l-29.1,12.2c-27.3,11.5-184.6,77.7-184.6,77.7-126.8,53.4-251.6,106-261.9,110.4-3.2,1.2-11.1,4.4-19.2,10-7.1,4.7-12.8,10.2-17.3,16.8-6.9,10.1-10.1,23-8.6,34.6,2.1,16.7,11,30.8,26.5,41.8,9.5,6.8,18.7,10,19.1,10.2l1.6.6h.3l115.7,39c2.7,8.7,7.4,24.2,12.8,41.7,11.5,37.5,25.8,84.2,30.6,99.4,4.7,15.1,9.6,25.3,16,33.3,3.4,4.5,7.4,8.2,12,11.1h.2c1.7,1.1,3.4,2,5.6,2.8.5.3,1.2.7,2.3,1.1h.3c1.4.5,2.5.7,3.6.9,4.2,1.2,8.6,1.8,13,1.8,16.9,0,28.8-8.8,30.2-9.9l1.2-.9,66.2-60.3,115.2,88.3,3.8,1.6c10.1,4.4,20.7,6.7,31.6,6.7h0c16.2,0,31.8-5.1,42.9-14,15-12.1,21.3-27.5,21.9-29l1.2-3.1,93.5-479c3.3-14.7,3.4-26.9.2-38.3ZM547.2,623.4c-.2,0-.3-.1-.5-.2l-153.2-117.5-74.4,67.8,13.8-88.2c25.1-23.4,229.5-213.9,238.9-222.6,5.5-5.1,11.1-11.4,10.3-18.6,0-.8-.3-1.6-.5-2.4-.4-4.4-2.3-7.3-3.9-9-2-2.1-5.5-4.6-11.3-4.6s-13,3.2-14.3,3.8l-.4.2-300.3,186-117.4-39.5c42.6-17.9,141.1-59.4,240.8-101.4l32.2-13.6c55.4-23.3,109.2-46,152.3-64.2,33-13.9,61.2-25.7,77.3-32.4l-89.2,456.3Z" />
</svg>
