<svg xmlns="http://www.w3.org/2000/svg" version="1.1" viewBox="0 0 800 800" fill='currentColor'>
  <path d="M792,566.4l-1.2-3.8-1.8-3.5c-18.5-37.2-42.6-71-71.9-100.4-10-11.6-21.8-23.1-30.4-31.6l-1.2-1.2c-2.6-2.6-5.1-5-7.3-7.2,38-53.6,70.9-111.1,97.6-171l1.3-2.9.9-3c4.8-16.3,7.4-40.2-7.9-61.9-16.5-23.4-42.6-28.3-61.5-28.3h-74.7c-1.2,0-2.4,0-3.6,0-15.9,0-31.3,4.6-44.6,13.3-14.5,9.5-25.4,23.1-31.5,39.3-12.9,30.8-28.6,60.5-46.7,88.6v-64.8c0-13.4-1.5-33.3-14.6-50.6-16.2-21.3-39.2-25.8-55.8-25.8h-118.8c-.5,0-1,0-1.5,0-16.6,0-32.5,6.1-44.9,17.1-13.2,11.7-21.1,27.9-22.3,45.5v1.7c-.1,0-.1,1.7-.1,1.7,0,14.1,4.2,27,12.8,39.6,2.4,3.6,5.1,6.8,6.6,8.8l.4.4c1.6,2,2.7,3.3,3.7,4.7,2.3,3.2,5.8,7.9,6.9,22v22.6c-17.2-31.6-32.8-67.1-44.7-102.4l-.3-.9-.3-.8c-5.1-13.3-12-28.4-25.4-40.6-14.2-12.9-32.5-19.5-54.3-19.5h-76c-23.8,0-42.8,7.3-56.5,21.8-11.9,12.6-18.2,29.4-18.2,48.6v5.2l1.1,5.1c21.1,98.1,65.3,191.4,127.8,269.9,28.7,45.1,68,83.5,113.9,110.9,46.7,28,100.1,44.7,154.4,48.4h1.6c0,.1,1.6.1,1.6.1,23.9,0,51.2-1.9,72.3-15.9,20.4-13.6,30.7-34.5,30.7-62.1v-22.8c4.1,3.6,8.3,7.6,12.8,11.9,12,12,21.7,22.6,29.6,31.3l4.5,5c6.5,7.3,12.7,14.2,18.5,20,6.9,7,16.5,15.8,28.9,22.4,12.8,6.8,26.4,10.1,41.5,10.1h76c17.8,0,42.7-4.3,60.5-24.9,21.6-25,16.9-54.6,12.1-70ZM451,484.2c-3.1,3.9-5.2,8.7-6.3,14.7-.8,4.3-1.2,9.4-1.2,16.1v68.4c0,7.4-1.1,8.1-2.2,8.9-2.9,1.9-11.4,5.1-36.3,5.2-44.1-3-87.4-16.7-125.3-39.4-38-22.8-70.6-54.8-94.1-92.4l-.5-.8-.6-.7c-56.9-70.8-97.2-155.1-116.6-243.8.1-2.5.6-3.1.6-3.1,0,0,2.1-1.8,10.1-1.8h76c7.1,0,9.7,1.5,11.3,2.9,2.7,2.4,5.3,7.3,8.5,15.8,17.4,51.1,42.3,104,68.4,145.3,12.2,19.3,24.4,35.5,35.1,46.7,5.9,6.1,11.5,11,16.6,14.4,6.9,4.6,13.4,6.8,19.6,6.8s7.7-.2,12.5-2.4c4.9-2.2,8.8-5.8,11.6-10.7,3.8-6.8,5.3-15.7,5.3-31v-112.8c-1.9-30-11.4-46.4-19.4-57.2-1.8-2.5-3.6-4.7-5.2-6.7l-.4-.5c-1.5-1.8-2.8-3.5-3.8-4.9-1.1-1.7-1.5-2.5-1.6-3,.2-.7.5-1.3,1-1.7.6-.6,1.4-.9,2.3-.9h.3s120,0,120,0c3.2,0,4.5.4,4.9.6.3.6,1.5,3.4,1.5,11.8v151c0,21.8,11.2,37.1,27.3,37.1s28.8-10.5,46.1-27.8l.5-.5.5-.6c39.5-48.2,71.7-101.7,95.7-159.1v-.2c0,0,.3-.6.3-.6,1.3-3.6,3.7-6.7,6.9-8.7,2.8-1.9,6.1-2.8,9.5-2.8s.8,0,1.2,0h.5s76.6,0,76.6,0c5.8,0,8.3.9,9.1,1.3,0,.7.1,2.5-.8,5.7-27.1,60.4-60.7,118.2-100,171.6h-.1c0,.1-.4.7-.4.7-4,6.2-9.1,13.8-9.8,23.2-.7,9.2,2.4,17.8,10.2,27.9,4.9,7.1,14,16,23.7,25.5l.9.9c9.4,9.2,20,19.6,28.4,29.4l.4.4.4.4c24.6,24.5,45,52.7,60.6,83.8,1.4,5.1.8,7.6.3,8.3-.9,1-4.4,2.7-12,2.7h-76c-4.6,0-8.1-.8-11.6-2.7-3.8-2-7.9-5.4-13.4-10.9-4.6-4.6-9.5-10.1-15.8-17.1l-1.4-1.6c-1.2-1.3-2.4-2.7-3.7-4.1-8.5-9.4-19-20.9-32.2-34.1l-.2-.2c-48.6-46.8-70.8-53.1-86.1-53.1s-19.4,0-27.9,10.6Z" />
</svg>
